<?xml version="1.0" standalone="no"?>
<!DOCTYPE svg PUBLIC "-//W3C//DTD SVG 20010904//EN"
 "http://www.w3.org/TR/2001/REC-SVG-20010904/DTD/svg10.dtd">
<svg version="1.0" xmlns="http://www.w3.org/2000/svg"
 width="1536.000000pt" height="1536.000000pt" viewBox="0 0 1536.000000 1536.000000"
 preserveAspectRatio="xMidYMid meet">

<g transform="translate(0.000000,1536.000000) scale(0.100000,-0.100000)"
fill="#000000" stroke="none">
<path d="M10790 14117 l0 -1034 125 -6 c636 -32 1237 -307 1677 -766 370 -386
595 -853 674 -1396 24 -163 24 -495 1 -660 -102 -720 -497 -1349 -1096 -1747
-375 -248 -797 -387 -1263 -414 l-118 -7 0 -3927 c0 -3731 1 -3928 18 -3936 9
-5 1037 -10 2285 -12 l2267 -3 0 7471 0 7470 -2285 0 -2285 0 0 -1033z"/>
<path d="M10595 11389 c-296 -74 -535 -315 -605 -609 -27 -114 -27 -275 0
-386 94 -392 447 -654 853 -631 453 26 797 408 774 861 -7 135 -32 228 -95
351 -37 73 -65 109 -142 186 -110 111 -192 163 -330 210 -86 30 -108 33 -235
36 -114 2 -155 -1 -220 -18z"/>
</g>
</svg>
